<svg xmlns="http://www.w3.org/2000/svg" width="1200" height="800" viewBox="0 0 1200 800" fill="none">
  <defs>
    <linearGradient id="bg" x1="0" y1="0" x2="1200" y2="800" gradientUnits="userSpaceOnUse">
      <stop stop-color="#111111"/>
      <stop offset="1" stop-color="#1a1a1a"/>
    </linearGradient>
  </defs>
  <rect width="1200" height="800" fill="url(#bg)"/>
  <rect x="40" y="40" width="1120" height="720" rx="24" stroke="#262626" stroke-width="4"/>
  <rect x="96" y="120" width="340" height="18" rx="9" fill="#22d3ee" fill-opacity="0.9"/>
  <rect x="96" y="168" width="520" height="12" rx="6" fill="#525252"/>
  <rect x="96" y="194" width="460" height="12" rx="6" fill="#525252"/>
  <rect x="96" y="220" width="420" height="12" rx="6" fill="#525252"/>
  <rect x="96" y="286" width="220" height="54" rx="27" fill="#22d3ee" fill-opacity="0.15" stroke="#22d3ee"/>
  <rect x="336" y="286" width="220" height="54" rx="27" fill="#111111" stroke="#262626"/>
  <rect x="96" y="390" width="1008" height="2" fill="#262626"/>
  <rect x="96" y="442" width="280" height="180" rx="16" fill="#111111" stroke="#262626"/>
  <rect x="408" y="442" width="280" height="180" rx="16" fill="#111111" stroke="#262626"/>
  <rect x="720" y="442" width="280" height="180" rx="16" fill="#111111" stroke="#262626"/>
  <text x="96" y="610" fill="#a1a1a1" font-size="24" font-family="monospace">Portfolio Project Preview</text>
</svg>
